<svg xmlns="http://www.w3.org/2000/svg" viewBox="0 0 600 200" preserveAspectRatio="xMidYMid slice" role="img">
  <defs>
    <radialGradient id="rg" cx="80%" cy="20%" r="60%">
      <stop offset="0%" stop-color="#c8553d" stop-opacity="0.55"/>
      <stop offset="100%" stop-color="#c8553d" stop-opacity="0"/>
    </radialGradient>
    <pattern id="grid" width="20" height="20" patternUnits="userSpaceOnUse">
      <path d="M 20 0 L 0 0 0 20" fill="none" stroke="#f5f3ee" stroke-opacity="0.06" stroke-width="0.5"/>
    </pattern>
    <pattern id="diagonal" width="14" height="14" patternUnits="userSpaceOnUse" patternTransform="rotate(45)">
      <line x1="0" y1="0" x2="0" y2="14" stroke="#f5f3ee" stroke-opacity="0.05" stroke-width="1"/>
    </pattern>
    <pattern id="dots" width="24" height="24" patternUnits="userSpaceOnUse">
      <circle cx="12" cy="12" r="1" fill="#f5f3ee" fill-opacity="0.12"/>
    </pattern>
  </defs>
  <rect width="600" height="200" fill="#1a1d29"/>
  <rect width="600" height="200" fill="url(#rg)"/>
  <rect width="600" height="200" fill="url(#grid)"/>
  <line x1="60" y1="100" x2="140" y2="60" stroke="#f5f3ee" stroke-opacity="0.25" stroke-width="0.8"/>
  <line x1="60" y1="100" x2="140" y2="140" stroke="#f5f3ee" stroke-opacity="0.25" stroke-width="0.8"/>
  <line x1="140" y1="60" x2="240" y2="100" stroke="#f5f3ee" stroke-opacity="0.25" stroke-width="0.8"/>
  <line x1="140" y1="140" x2="240" y2="100" stroke="#f5f3ee" stroke-opacity="0.25" stroke-width="0.8"/>
  <line x1="240" y1="100" x2="320" y2="50" stroke="#f5f3ee" stroke-opacity="0.25" stroke-width="0.8"/>
  <line x1="240" y1="100" x2="320" y2="150" stroke="#f5f3ee" stroke-opacity="0.25" stroke-width="0.8"/>
  <line x1="320" y1="50" x2="420" y2="100" stroke="#f5f3ee" stroke-opacity="0.25" stroke-width="0.8"/>
  <line x1="320" y1="150" x2="420" y2="100" stroke="#f5f3ee" stroke-opacity="0.25" stroke-width="0.8"/>
  <line x1="420" y1="100" x2="500" y2="70" stroke="#f5f3ee" stroke-opacity="0.25" stroke-width="0.8"/>
  <line x1="420" y1="100" x2="500" y2="130" stroke="#f5f3ee" stroke-opacity="0.25" stroke-width="0.8"/>
  <line x1="500" y1="70" x2="560" y2="100" stroke="#f5f3ee" stroke-opacity="0.25" stroke-width="0.8"/>
  <line x1="500" y1="130" x2="560" y2="100" stroke="#f5f3ee" stroke-opacity="0.25" stroke-width="0.8"/>
  <circle cx="60" cy="100" r="4" fill="#f5f3ee" fill-opacity="0.7"/>
  <circle cx="140" cy="60" r="6" fill="#f5f3ee" fill-opacity="0.7"/>
  <circle cx="140" cy="140" r="4" fill="#f5f3ee" fill-opacity="0.7"/>
  <circle cx="240" cy="100" r="8" fill="#c8553d" fill-opacity="0.95"/>
  <circle cx="320" cy="50" r="5" fill="#f5f3ee" fill-opacity="0.7"/>
  <circle cx="320" cy="150" r="5" fill="#f5f3ee" fill-opacity="0.7"/>
  <circle cx="420" cy="100" r="4" fill="#f5f3ee" fill-opacity="0.7"/>
  <circle cx="500" cy="70" r="5" fill="#f5f3ee" fill-opacity="0.7"/>
  <circle cx="500" cy="130" r="5" fill="#f5f3ee" fill-opacity="0.7"/>
  <circle cx="560" cy="100" r="3" fill="#f5f3ee" fill-opacity="0.7"/>
</svg>