<svg xmlns="http://www.w3.org/2000/svg" viewBox="0 0 600 200" preserveAspectRatio="xMidYMid slice" role="img">
  <defs>
    <radialGradient id="rg" cx="80%" cy="20%" r="60%">
      <stop offset="0%" stop-color="#c8553d" stop-opacity="0.55"/>
      <stop offset="100%" stop-color="#c8553d" stop-opacity="0"/>
    </radialGradient>
    <pattern id="grid" width="20" height="20" patternUnits="userSpaceOnUse">
      <path d="M 20 0 L 0 0 0 20" fill="none" stroke="#f5f3ee" stroke-opacity="0.06" stroke-width="0.5"/>
    </pattern>
    <pattern id="diagonal" width="14" height="14" patternUnits="userSpaceOnUse" patternTransform="rotate(45)">
      <line x1="0" y1="0" x2="0" y2="14" stroke="#f5f3ee" stroke-opacity="0.05" stroke-width="1"/>
    </pattern>
    <pattern id="dots" width="24" height="24" patternUnits="userSpaceOnUse">
      <circle cx="12" cy="12" r="1" fill="#f5f3ee" fill-opacity="0.12"/>
    </pattern>
  </defs>
  <rect width="600" height="200" fill="#1a1d29"/>
  <rect width="600" height="200" fill="url(#rg)"/>
  
  <rect x="40.0" y="96.0" width="6" height="8" rx="1" fill="#f5f3ee" fill-opacity="0.7"/><rect x="53.2" y="96.0" width="6" height="8" rx="1" fill="#c8553d" fill-opacity="0.95"/><rect x="66.4" y="96.0" width="6" height="8" rx="1" fill="#f5f3ee" fill-opacity="0.7"/><rect x="79.5" y="96.0" width="6" height="8" rx="1" fill="#f5f3ee" fill-opacity="0.7"/><rect x="92.7" y="96.0" width="6" height="8" rx="1" fill="#f5f3ee" fill-opacity="0.7"/><rect x="105.9" y="96.0" width="6" height="8" rx="1" fill="#c8553d" fill-opacity="0.95"/><rect x="119.1" y="94.0" width="6" height="12" rx="1" fill="#f5f3ee" fill-opacity="0.7"/><rect x="132.3" y="94.5" width="6" height="11" rx="1" fill="#f5f3ee" fill-opacity="0.7"/><rect x="145.4" y="90.5" width="6" height="19" rx="1" fill="#f5f3ee" fill-opacity="0.7"/><rect x="158.6" y="89.5" width="6" height="21" rx="1" fill="#f5f3ee" fill-opacity="0.7"/><rect x="171.8" y="85.5" width="6" height="29" rx="1" fill="#c8553d" fill-opacity="0.95"/><rect x="185.0" y="85.0" width="6" height="30" rx="1" fill="#f5f3ee" fill-opacity="0.7"/><rect x="198.2" y="90.0" width="6" height="20" rx="1" fill="#c8553d" fill-opacity="0.95"/><rect x="211.3" y="87.5" width="6" height="25" rx="1" fill="#f5f3ee" fill-opacity="0.7"/><rect x="224.5" y="88.0" width="6" height="24" rx="1" fill="#f5f3ee" fill-opacity="0.7"/><rect x="237.7" y="82.0" width="6" height="36" rx="1" fill="#f5f3ee" fill-opacity="0.7"/><rect x="250.9" y="81.5" width="6" height="37" rx="1" fill="#c8553d" fill-opacity="0.95"/><rect x="264.1" y="86.5" width="6" height="27" rx="1" fill="#f5f3ee" fill-opacity="0.7"/><rect x="277.2" y="77.5" width="6" height="45" rx="1" fill="#f5f3ee" fill-opacity="0.7"/><rect x="290.4" y="81.5" width="6" height="37" rx="1" fill="#f5f3ee" fill-opacity="0.7"/><rect x="303.6" y="78.5" width="6" height="43" rx="1" fill="#f5f3ee" fill-opacity="0.7"/><rect x="316.8" y="74.5" width="6" height="51" rx="1" fill="#f5f3ee" fill-opacity="0.7"/><rect x="329.9" y="83.5" width="6" height="33" rx="1" fill="#f5f3ee" fill-opacity="0.7"/><rect x="343.1" y="81.0" width="6" height="38" rx="1" fill="#f5f3ee" fill-opacity="0.7"/><rect x="356.3" y="79.5" width="6" height="41" rx="1" fill="#f5f3ee" fill-opacity="0.7"/><rect x="369.5" y="78.0" width="6" height="44" rx="1" fill="#c8553d" fill-opacity="0.95"/><rect x="382.7" y="85.5" width="6" height="29" rx="1" fill="#f5f3ee" fill-opacity="0.7"/><rect x="395.8" y="89.0" width="6" height="22" rx="1" fill="#f5f3ee" fill-opacity="0.7"/><rect x="409.0" y="91.0" width="6" height="18" rx="1" fill="#f5f3ee" fill-opacity="0.7"/><rect x="422.2" y="85.5" width="6" height="29" rx="1" fill="#f5f3ee" fill-opacity="0.7"/><rect x="435.4" y="86.0" width="6" height="28" rx="1" fill="#f5f3ee" fill-opacity="0.7"/><rect x="448.6" y="89.0" width="6" height="22" rx="1" fill="#f5f3ee" fill-opacity="0.7"/><rect x="461.7" y="91.0" width="6" height="18" rx="1" fill="#f5f3ee" fill-opacity="0.7"/><rect x="474.9" y="90.5" width="6" height="19" rx="1" fill="#f5f3ee" fill-opacity="0.7"/><rect x="488.1" y="93.5" width="6" height="13" rx="1" fill="#f5f3ee" fill-opacity="0.7"/><rect x="501.3" y="96.0" width="6" height="8" rx="1" fill="#f5f3ee" fill-opacity="0.7"/><rect x="514.5" y="95.5" width="6" height="9" rx="1" fill="#f5f3ee" fill-opacity="0.7"/><rect x="527.6" y="96.0" width="6" height="8" rx="1" fill="#f5f3ee" fill-opacity="0.7"/><rect x="540.8" y="96.0" width="6" height="8" rx="1" fill="#f5f3ee" fill-opacity="0.7"/><rect x="554.0" y="96.0" width="6" height="8" rx="1" fill="#f5f3ee" fill-opacity="0.7"/>
  <polygon points="280,80 280,120 320,100" fill="#c8553d" fill-opacity="0.9"/>
</svg>